<?xml version="1.0" encoding="UTF-8"?>
<svg id="Layer_1" xmlns="http://www.w3.org/2000/svg" version="1.1" xmlns:xlink="http://www.w3.org/1999/xlink" viewBox="0 0 504.66 162.85">
  <!-- Generator: Adobe Illustrator 30.2.1, SVG Export Plug-In . SVG Version: 2.1.1 Build 1)  -->
  <defs>
    <style>
      .st0 {
        clip-path: url(#clippath-51);
      }

      .st1 {
        clip-path: url(#clippath-34);
      }

      .st2 {
        clip-path: url(#clippath-38);
      }

      .st3 {
        clip-path: url(#clippath-21);
      }

      .st4 {
        clip-path: url(#clippath-6);
      }

      .st5 {
        clip-path: url(#clippath-7);
      }

      .st6 {
        clip-path: url(#clippath-17);
      }

      .st7 {
        clip-path: url(#clippath-31);
      }

      .st8 {
        fill: url(#radial-gradient20);
      }

      .st9 {
        clip-path: url(#clippath-15);
      }

      .st10 {
        fill: url(#radial-gradient30);
      }

      .st11 {
        clip-path: url(#clippath-33);
      }

      .st12 {
        fill: url(#radial-gradient28);
      }

      .st13 {
        clip-path: url(#clippath-18);
      }

      .st14 {
        clip-path: url(#clippath-47);
      }

      .st15 {
        clip-path: url(#clippath-4);
      }

      .st16 {
        clip-path: url(#clippath-22);
      }

      .st17 {
        fill: url(#radial-gradient45);
      }

      .st18 {
        clip-path: url(#clippath-23);
      }

      .st19 {
        fill: url(#radial-gradient39);
      }

      .st20 {
        fill: url(#radial-gradient48);
      }

      .st21 {
        clip-path: url(#clippath-9);
      }

      .st22 {
        clip-path: url(#clippath-10);
      }

      .st23 {
        clip-path: url(#clippath-42);
      }

      .st24 {
        fill: url(#radial-gradient10);
      }

      .st25 {
        fill: url(#radial-gradient41);
      }

      .st26 {
        clip-path: url(#clippath-43);
      }

      .st27 {
        fill: url(#linear-gradient1);
      }

      .st28 {
        clip-path: url(#clippath-25);
      }

      .st29 {
        fill: url(#radial-gradient24);
      }

      .st30 {
        clip-path: url(#clippath-27);
      }

      .st31 {
        fill: #0e4b83;
      }

      .st32 {
        fill: url(#radial-gradient11);
      }

      .st33 {
        fill: url(#radial-gradient49);
      }

      .st34 {
        clip-path: url(#clippath-11);
      }

      .st35 {
        fill: url(#radial-gradient46);
      }

      .st36 {
        fill: none;
      }

      .st37 {
        fill: url(#radial-gradient34);
      }

      .st38 {
        clip-path: url(#clippath-36);
      }

      .st39 {
        clip-path: url(#clippath-35);
      }

      .st40 {
        clip-path: url(#clippath-48);
      }

      .st41 {
        fill: url(#radial-gradient);
      }

      .st42 {
        fill: url(#radial-gradient21);
      }

      .st43 {
        clip-path: url(#clippath-28);
      }

      .st44 {
        fill: url(#radial-gradient19);
      }

      .st45 {
        fill: url(#radial-gradient22);
      }

      .st46 {
        fill: url(#radial-gradient5);
      }

      .st47 {
        fill: url(#radial-gradient1);
      }

      .st48 {
        clip-path: url(#clippath-1);
      }

      .st49 {
        fill: url(#radial-gradient42);
      }

      .st50 {
        clip-path: url(#clippath-45);
      }

      .st51 {
        clip-path: url(#clippath-46);
      }

      .st52 {
        clip-path: url(#clippath-40);
      }

      .st53 {
        fill: url(#radial-gradient33);
      }

      .st54 {
        clip-path: url(#clippath-5);
      }

      .st55 {
        fill: url(#radial-gradient47);
      }

      .st56 {
        clip-path: url(#clippath-20);
      }

      .st57 {
        fill: url(#radial-gradient38);
      }

      .st58 {
        fill: url(#radial-gradient31);
      }

      .st59 {
        clip-path: url(#clippath-8);
      }

      .st60 {
        fill: url(#radial-gradient35);
      }

      .st61 {
        fill: url(#radial-gradient26);
      }

      .st62 {
        clip-path: url(#clippath-52);
      }

      .st63 {
        clip-path: url(#clippath-41);
      }

      .st64 {
        fill: url(#radial-gradient7);
      }

      .st65 {
        fill: url(#radial-gradient37);
      }

      .st66 {
        fill: url(#radial-gradient18);
      }

      .st67 {
        clip-path: url(#clippath-3);
      }

      .st68 {
        fill: url(#radial-gradient14);
      }

      .st69 {
        clip-path: url(#clippath-26);
      }

      .st70 {
        fill: url(#radial-gradient13);
      }

      .st71 {
        clip-path: url(#clippath-12);
      }

      .st72 {
        clip-path: url(#clippath-50);
      }

      .st73 {
        clip-path: url(#clippath-14);
      }

      .st74 {
        fill: url(#radial-gradient32);
      }

      .st75 {
        clip-path: url(#clippath-30);
      }

      .st76 {
        fill: url(#radial-gradient27);
      }

      .st77 {
        clip-path: url(#clippath-19);
      }

      .st78 {
        fill: url(#radial-gradient8);
      }

      .st79 {
        fill: url(#radial-gradient12);
      }

      .st80 {
        fill: url(#radial-gradient43);
      }

      .st81 {
        clip-path: url(#clippath-32);
      }

      .st82 {
        fill: url(#radial-gradient25);
      }

      .st83 {
        fill: url(#radial-gradient23);
      }

      .st84 {
        fill: url(#radial-gradient17);
      }

      .st85 {
        fill: url(#radial-gradient6);
      }

      .st86 {
        fill: url(#radial-gradient2);
      }

      .st87 {
        fill: url(#radial-gradient40);
      }

      .st88 {
        clip-path: url(#clippath-39);
      }

      .st89 {
        fill: url(#radial-gradient50);
      }

      .st90 {
        fill: url(#radial-gradient15);
      }

      .st91 {
        fill: url(#radial-gradient44);
      }

      .st92 {
        clip-path: url(#clippath-16);
      }

      .st93 {
        clip-path: url(#clippath-2);
      }

      .st94 {
        clip-path: url(#clippath-29);
      }

      .st95 {
        fill: url(#radial-gradient4);
      }

      .st96 {
        clip-path: url(#clippath-49);
      }

      .st97 {
        clip-path: url(#clippath-37);
      }

      .st98 {
        fill: url(#radial-gradient3);
      }

      .st99 {
        fill: url(#radial-gradient29);
      }

      .st100 {
        clip-path: url(#clippath-13);
      }

      .st101 {
        fill: url(#radial-gradient9);
      }

      .st102 {
        fill: url(#linear-gradient);
      }

      .st103 {
        clip-path: url(#clippath-24);
      }

      .st104 {
        clip-path: url(#clippath);
      }

      .st105 {
        fill: url(#radial-gradient36);
      }

      .st106 {
        fill: url(#radial-gradient16);
      }

      .st107 {
        clip-path: url(#clippath-44);
      }
    </style>
    <clipPath id="clippath">
      <path class="st36" d="M14.17,83.69c0,38.34,31.09,69.42,69.42,69.42s69.42-31.08,69.42-69.42S121.93,14.27,83.59,14.27,14.17,45.35,14.17,83.69"/>
    </clipPath>
    <radialGradient id="radial-gradient" cx="-47.04" cy="500.76" fx="-47.04" fy="500.76" r="2.27" gradientTransform="translate(2421.74 25251.41) scale(50.33 -50.33)" gradientUnits="userSpaceOnUse">
      <stop offset="0" stop-color="#fff"/>
      <stop offset=".26" stop-color="#fff"/>
      <stop offset=".43" stop-color="#e3e4e4"/>
      <stop offset=".9" stop-color="#9c9ea1"/>
      <stop offset="1" stop-color="#9c9ea1"/>
    </radialGradient>
    <clipPath id="clippath-1">
      <path class="st36" d="M14.43,83.69C14.43,45.56,45.46,14.54,83.59,14.54s69.15,31.02,69.15,69.15-31.02,69.16-69.15,69.16S14.43,121.82,14.43,83.69M13.9,83.69c0,38.43,31.26,69.69,69.69,69.69s69.68-31.26,69.68-69.69S122.01,14,83.59,14,13.9,45.27,13.9,83.69"/>
    </clipPath>
    <radialGradient id="radial-gradient1" cx="-47.04" cy="500.76" fx="-47.04" fy="500.76" r="2.27" gradientTransform="translate(2450.41 25578.22) scale(50.98 -50.98)" gradientUnits="userSpaceOnUse">
      <stop offset="0" stop-color="#88aedc"/>
      <stop offset=".06" stop-color="#6a97ca"/>
      <stop offset=".19" stop-color="#326ca8"/>
      <stop offset=".25" stop-color="#1d5c9b"/>
      <stop offset=".57" stop-color="#064d85"/>
      <stop offset=".74" stop-color="#07305f"/>
      <stop offset=".91" stop-color="#091942"/>
      <stop offset="1" stop-color="#0a1137"/>
    </radialGradient>
    <clipPath id="clippath-2">
      <path class="st36" d="M16.92,83.69c0,36.83,29.86,66.68,66.67,66.68s66.67-29.85,66.67-66.68S120.41,17.01,83.59,17.01,16.92,46.86,16.92,83.69"/>
    </clipPath>
    <linearGradient id="linear-gradient" x1="-45.39" y1="500.16" x2="-43.11" y2="500.16" gradientTransform="translate(-29341.51 2687.43) rotate(90) scale(58.83 -58.83)" gradientUnits="userSpaceOnUse">
      <stop offset="0" stop-color="#bbbdbf"/>
      <stop offset=".19" stop-color="#a3a4a7"/>
      <stop offset=".55" stop-color="#7b7b7e"/>
      <stop offset=".83" stop-color="#626265"/>
      <stop offset="1" stop-color="#59595c"/>
    </linearGradient>
    <clipPath id="clippath-3">
      <path class="st36" d="M17.74,83.69c0,36.38,29.48,65.85,65.85,65.85s65.86-29.48,65.86-65.85S119.96,17.83,83.59,17.83,17.74,47.31,17.74,83.69"/>
    </clipPath>
    <radialGradient id="radial-gradient2" cx="-46.9" cy="500.9" fx="-46.9" fy="500.9" r="2.27" gradientTransform="translate(2607.04 27319.38) scale(54.44 -54.44)" xlink:href="#radial-gradient1"/>
    <clipPath id="clippath-4">
      <path class="st36" d="M37.63,83.69c0,25.38,20.58,45.96,45.96,45.96s45.95-20.58,45.95-45.96-20.57-45.96-45.95-45.96-45.96,20.58-45.96,45.96"/>
    </clipPath>
    <linearGradient id="linear-gradient1" x1="-46" y1="505.88" x2="-43.73" y2="505.88" gradientTransform="translate(20524.77 -1730.11) rotate(-90) scale(40.41 -40.41)" gradientUnits="userSpaceOnUse">
      <stop offset="0" stop-color="#fff"/>
      <stop offset=".15" stop-color="#dedede"/>
      <stop offset=".44" stop-color="#a5a5a6"/>
      <stop offset=".69" stop-color="#7b7b7e"/>
      <stop offset=".88" stop-color="#626265"/>
      <stop offset="1" stop-color="#59595c"/>
    </linearGradient>
    <clipPath id="clippath-5">
      <path class="st36" d="M38.76,83.65c0,24.76,20.08,44.83,44.83,44.83s44.82-20.08,44.82-44.83-20.07-44.84-44.82-44.84-44.83,20.08-44.83,44.84"/>
    </clipPath>
    <radialGradient id="radial-gradient3" cx="-47.05" cy="500.75" fx="-47.05" fy="500.75" r="2.27" gradientTransform="translate(2421.96 25250.33) scale(50.33 -50.33)" xlink:href="#radial-gradient"/>
    <clipPath id="clippath-6">
      <path class="st36" d="M103.44,63.35v2.21h-26.87v-2.21h-6.41v2.21h-16.87v5.69h5.08c-3.52,1.54-5.79,4.89-5.79,9.79,0,6.58,6.19,10.32,11.17,10.32h18.61v-2h5.26v2h26.6v-5.69h-4.38v-14.43h4.38v-5.69h-4.38v-2.21h-6.4Z"/>
    </clipPath>
    <radialGradient id="radial-gradient4" cx="-47.7" cy="500.07" fx="-47.7" fy="500.07" r="2.27" gradientTransform="translate(1838.2 18718.89) scale(37.33 -37.33)" xlink:href="#radial-gradient1"/>
    <clipPath id="clippath-7">
      <path class="st36" d="M101.96,64.04v-2.31c.51,0,9.34-.02,9.85-.02v2.33h4.33c0,.5-.02,8.3-.02,8.81h-4.47v11.59h4.45c0,.5.02,8.42.02,8.93-.54,0-29.24-.05-29.78-.05v-2.04h-2.29v2.09h-20.35c-3.98,0-7.81-1.75-9.98-4.58-1.88-2.2-2.99-5.03-2.99-7.6,0-3.41.87-6,2.72-8.14l.41-.46s-1.85,0-2.26,0v-8.58h17.09v-2.31c.51,0,9.19.02,9.69.02v2.29h23.58ZM101.41,61.18v2.31h-22.48v-2.29l-10.79-.02v2.31h-17.08v9.68s1.11,0,1.66,0c-1.71,2.15-2.54,4.71-2.54,8.03,0,2.69,1.16,5.66,3.12,7.94,2.27,2.95,6.27,4.79,10.41,4.79h20.9v-2.09h1.18v2.04l30.89.05-.02-10.03h-4.45v-10.5h4.47l.02-9.91h-4.33v-2.33l-10.95.03Z"/>
    </clipPath>
    <radialGradient id="radial-gradient5" cx="-47.07" cy="500.73" fx="-47.07" fy="500.73" r="2.27" gradientTransform="translate(2426.06 25318.87) scale(50.46 -50.46)" xlink:href="#radial-gradient1"/>
    <clipPath id="clippath-8">
      <path class="st36" d="M65.76,80.75v3.48c0,1.75,1.14,2.81,2.98,2.81h8.92s0-1.49,0-1.49h-9.08v-4.79h-2.83ZM66.21,75.71c0-1.49,1.04-2.63,2.3-2.63s2.31,1.14,2.31,2.63-1.03,2.64-2.31,2.64-2.3-1.11-2.3-2.64M63.73,71.37v1.49h1.81c-1.09.67-1.77,1.7-1.77,2.85,0,2.01,2.05,3.65,4.75,3.65s4.75-1.63,4.75-3.65c0-1.15-.67-2.18-1.76-2.85h1.81v-1.49h-9.58ZM90.29,73.75c0-1.76,1.12-2.93,2.51-2.93s2.52,1.17,2.52,2.93-1.13,2.94-2.52,2.94-2.51-1.15-2.51-2.94M87.63,73.75c0,2.34,2.23,4.23,5.17,4.23s5.18-1.89,5.18-4.23-2.23-4.22-5.18-4.22-5.17,1.89-5.17,4.22M65.97,70.74h5.1v-1.5h-5.1v1.5ZM74.89,69.24v12.25h2.61v-6.39h2.13v-1.49h-2.13v-4.37h-2.61ZM92.68,83.38c0-1.7,1.43-2.72,3.01-2.72s3.01,1.03,3.01,2.72-1.42,2.71-3.01,2.71-3.01-1.03-3.01-2.71M98.7,69.24v10.63c-.87-.41-1.9-.66-3.01-.66-3.11,0-5.6,1.86-5.61,4.16.02,2.29,2.5,4.16,5.61,4.16s5.59-1.86,5.6-4.16h0v-6.77h2.21v-1.51h-2.21v-2.16h2.21v-1.51h-2.21v-2.2h-2.6Z"/>
    </clipPath>
    <radialGradient id="radial-gradient6" cx="-47.04" cy="500.76" fx="-47.04" fy="500.76" r="2.27" gradientTransform="translate(2421.56 25251.22) scale(50.33 -50.33)" gradientUnits="userSpaceOnUse">
      <stop offset="0" stop-color="#fff"/>
      <stop offset=".1" stop-color="#fff"/>
      <stop offset=".24" stop-color="#f4f5f5"/>
      <stop offset=".49" stop-color="#d9dbdd"/>
      <stop offset=".8" stop-color="#acb0b5"/>
      <stop offset="1" stop-color="#8d9399"/>
    </radialGradient>
    <clipPath id="clippath-9">
      <path class="st36" d="M136.92,93.46c-.02,1.79,1.1,3.25,1.1,3.25,0,0,1.15-1.44,1.16-3.23.02-1.79-1.09-3.26-1.09-3.26,0,0-1.15,1.44-1.17,3.23"/>
    </clipPath>
    <radialGradient id="radial-gradient7" cx="-43.51" cy="500.3" fx="-43.51" fy="500.3" r="2.25" gradientTransform="translate(-24658.67 5278.77) rotate(83.02) scale(50.3 -50.3)" xlink:href="#radial-gradient"/>
    <clipPath id="clippath-10">
      <path class="st36" d="M139.47,97.69c-2.16,2.44-2.6,5.58-2.6,5.58,0,0,3.05-.82,5.22-3.27,2.16-2.44,2.48-5.28,2.48-5.28,0,0-2.94.52-5.1,2.97"/>
    </clipPath>
    <radialGradient id="radial-gradient8" cx="-43.51" cy="500.27" fx="-43.51" fy="500.27" r="2.27" gradientTransform="translate(-24667.19 5280.6) rotate(83.02) scale(50.32 -50.32)" xlink:href="#radial-gradient"/>
    <clipPath id="clippath-11">
      <path class="st36" d="M133.5,98.38c.62,2.7,2.52,4.56,2.52,4.56,0,0,.78-2.25.15-4.95-.62-2.7-2.56-4.18-2.56-4.18,0,0-.73,1.88-.11,4.57"/>
    </clipPath>
    <radialGradient id="radial-gradient9" cx="-43.52" cy="500.23" fx="-43.52" fy="500.23" r="2.29" gradientTransform="translate(-25120.71 2228.61) rotate(90) scale(50.34 -50.34)" xlink:href="#radial-gradient"/>
    <clipPath id="clippath-12">
      <path class="st36" d="M136.39,106.38c-2.55,2.03-3.53,5.04-3.53,5.04,0,0,3.15-.28,5.71-2.32,2.56-2.03,3.36-4.76,3.36-4.76,0,0-2.98,0-5.54,2.04"/>
    </clipPath>
    <radialGradient id="radial-gradient10" cx="-43.5" cy="500.26" fx="-43.5" fy="500.26" r="2.28" gradientTransform="translate(-25112.16 2216.51) rotate(90.03) scale(50.32 -50.32)" xlink:href="#radial-gradient"/>
    <clipPath id="clippath-13">
      <path class="st36" d="M130.39,105.96c.15,2.76,1.69,4.93,1.69,4.93,0,0,1.16-2.08,1.01-4.85-.15-2.76-1.8-4.56-1.8-4.56,0,0-1.04,1.73-.9,4.49"/>
    </clipPath>
    <radialGradient id="radial-gradient11" cx="-43.52" cy="500.28" fx="-43.52" fy="500.28" r="2.27" gradientTransform="translate(-25119.4 2235.57) rotate(89.99) scale(50.34 -50.34)" xlink:href="#radial-gradient"/>
    <clipPath id="clippath-14">
      <path class="st36" d="M120.44,127.99c-3,.69-5.07,2.86-5.07,2.86,0,0,2.8,1.04,5.8.35,3.01-.69,4.8-2.68,4.8-2.68,0,0-1.55-.74-3.66-.74-.59,0-1.22.06-1.87.21"/>
    </clipPath>
    <radialGradient id="radial-gradient12" cx="-43.53" cy="500.26" fx="-43.53" fy="500.26" r="2.28" gradientTransform="translate(-25126.03 2259.08) rotate(89.94) scale(50.36 -50.36)" xlink:href="#radial-gradient"/>
    <clipPath id="clippath-15">
      <path class="st36" d="M115.21,124.88c-1.08,2.61-.61,5.28-.61,5.28,0,0,1.98-1.41,3.06-4.01,1.08-2.6.35-4.98.35-4.98,0,0-1.72,1.13-2.81,3.72"/>
    </clipPath>
    <radialGradient id="radial-gradient13" cx="-43.52" cy="500.27" fx="-43.52" fy="500.27" r="2.28" gradientTransform="translate(-25119.22 2234) rotate(90) scale(50.34 -50.34)" xlink:href="#radial-gradient"/>
    <clipPath id="clippath-16">
      <path class="st36" d="M107.44,134.75s2.38,1.58,5.31,1.58c2.93.01,5.03-1.44,5.03-1.44,0,0-2.09-1.67-5.03-1.68h-.05c-2.91,0-5.27,1.54-5.27,1.54"/>
    </clipPath>
    <radialGradient id="radial-gradient14" cx="-43.51" cy="500.25" fx="-43.51" fy="500.25" r="2.26" gradientTransform="translate(-25116.06 2240.3) rotate(89.98) scale(50.34 -50.34)" xlink:href="#radial-gradient"/>
    <clipPath id="clippath-17">
      <path class="st36" d="M108.67,128.81c-1.64,2.29-1.79,5-1.79,5,0,0,2.24-.93,3.88-3.22,1.65-2.29,1.48-4.77,1.48-4.77,0,0-1.93.71-3.57,3"/>
    </clipPath>
    <radialGradient id="radial-gradient15" cx="-43.5" cy="500.46" fx="-43.5" fy="500.46" r="2.27" gradientTransform="translate(-25116.73 2228.13) rotate(90.01) scale(50.32 -50.32)" xlink:href="#radial-gradient"/>
    <clipPath id="clippath-18">
      <path class="st36" d="M99.87,138.95c-.92-.45-1.3-1.56-.85-2.47.46-.92,1.57-1.3,2.49-.84.92.45,1.3,1.56.84,2.48-.32.66-.98,1.03-1.66,1.03-.27,0-.56-.06-.82-.2M100.57,133.38c-.37.73-.53,1.48-.5,2.12-.36-.51-.94-1.02-1.68-1.38-1.54-.76-3.72-.92-4.17-.01-.46.91,1,2.55,2.54,3.3.74.36,1.49.52,2.12.5-.51.36-1.02.94-1.38,1.67-.76,1.55-.93,3.72-.01,4.16.91.46,2.54-1,3.29-2.54.36-.74.53-1.49.5-2.11.36.51.94,1.01,1.68,1.37,1.53.76,3.72.92,4.16.01.45-.91-1-2.54-2.55-3.3-.73-.36-1.48-.51-2.11-.48.52-.37,1.01-.95,1.38-1.68.75-1.54.92-3.72,0-4.17-.12-.06-.24-.08-.37-.08-.93,0-2.26,1.28-2.92,2.63"/>
    </clipPath>
    <radialGradient id="radial-gradient16" cx="-43.51" cy="500.25" fx="-43.51" fy="500.25" r="2.28" gradientTransform="translate(-25107.41 2231.28) rotate(90) scale(50.32 -50.32)" xlink:href="#radial-gradient"/>
    <clipPath id="clippath-19">
      <path class="st36" d="M126.27,117.63c-.15-1.04.57-1.99,1.6-2.15,1.04-.14,2,.58,2.14,1.61.16,1.03-.56,1.99-1.6,2.15-.09,0-.18.02-.27.02-.93,0-1.73-.68-1.87-1.63M127.1,110.07c-1.02.16-1.56,2.32-1.31,4.06.12.83.42,1.56.81,2.07-.61-.23-1.39-.31-2.21-.19-1.74.24-3.67,1.37-3.52,2.39.14,1.02,2.31,1.56,4.05,1.31.83-.11,1.56-.41,2.08-.81-.23.61-.31,1.39-.19,2.23.24,1.73,1.37,3.65,2.39,3.51,1.02-.14,1.56-2.31,1.31-4.05-.12-.82-.42-1.56-.81-2.07.61.23,1.39.31,2.22.21,1.74-.26,3.67-1.39,3.52-2.41-.15-1.02-2.32-1.56-4.05-1.31-.83.12-1.56.42-2.07.81.23-.6.32-1.38.2-2.21-.25-1.68-1.3-3.53-2.29-3.53h-.11"/>
    </clipPath>
    <radialGradient id="radial-gradient17" cx="-43.52" cy="500.27" fx="-43.52" fy="500.27" r="2.27" gradientTransform="translate(-25118.96 2234.06) rotate(89.99) scale(50.34 -50.34)" xlink:href="#radial-gradient"/>
    <clipPath id="clippath-20">
      <path class="st36" d="M28.41,93.48c.02,1.79,1.17,3.23,1.17,3.23,0,0,1.12-1.46,1.1-3.25-.02-1.79-1.17-3.23-1.17-3.23,0,0-1.11,1.47-1.09,3.26"/>
    </clipPath>
    <radialGradient id="radial-gradient18" cx="-43.03" cy="504.32" fx="-43.03" fy="504.32" r="2.28" gradientTransform="translate(-2105.35 25507.3) rotate(-179.96) scale(50.36)" xlink:href="#radial-gradient"/>
    <clipPath id="clippath-21">
      <path class="st36" d="M25.52,100c2.16,2.44,5.21,3.27,5.21,3.27,0,0-.45-3.14-2.61-5.58-2.16-2.45-5.09-2.97-5.09-2.97,0,0,.31,2.83,2.48,5.28"/>
    </clipPath>
    <radialGradient id="radial-gradient19" cx="-43.02" cy="504.34" fx="-43.02" fy="504.34" r="2.28" gradientTransform="translate(24990.22 5282.34) rotate(96.98) scale(50.34)" xlink:href="#radial-gradient"/>
    <clipPath id="clippath-22">
      <path class="st36" d="M31.42,97.99c-.62,2.69.15,4.95.15,4.95,0,0,1.9-1.86,2.52-4.56.62-2.69-.11-4.57-.11-4.57,0,0-1.94,1.48-2.57,4.18"/>
    </clipPath>
    <radialGradient id="radial-gradient20" cx="-43.02" cy="504.31" fx="-43.02" fy="504.31" r="2.27" gradientTransform="translate(-2083.81 25492) rotate(-179.99) scale(50.32)" xlink:href="#radial-gradient"/>
    <clipPath id="clippath-23">
      <path class="st36" d="M29.03,109.1c2.56,2.04,5.71,2.32,5.71,2.32,0,0-.98-3.01-3.53-5.04-2.56-2.04-5.54-2.04-5.54-2.04,0,0,.81,2.73,3.36,4.76"/>
    </clipPath>
    <radialGradient id="radial-gradient21" cx="-43.01" cy="504.53" fx="-43.01" fy="504.53" r="2.28" gradientTransform="translate(-2068.29 25514.7) rotate(179.99) scale(50.32)" xlink:href="#radial-gradient"/>
    <clipPath id="clippath-24">
      <path class="st36" d="M34.5,106.03c-.14,2.77,1.01,4.85,1.01,4.85,0,0,1.55-2.17,1.69-4.93.14-2.76-.9-4.49-.9-4.49,0,0-1.65,1.8-1.8,4.56"/>
    </clipPath>
    <radialGradient id="radial-gradient22" cx="-43.03" cy="504.33" fx="-43.03" fy="504.33" r="2.27" gradientTransform="translate(-2060.74 25506.24) rotate(179.98) scale(50.34)" xlink:href="#radial-gradient"/>
    <clipPath id="clippath-25">
      <path class="st36" d="M41.63,128.53s1.8,1.99,4.8,2.68c2.99.69,5.79-.35,5.79-.35,0,0-2.06-2.17-5.07-2.86-.65-.15-1.29-.21-1.88-.21-2.11,0-3.65.74-3.65.74"/>
    </clipPath>
    <radialGradient id="radial-gradient23" cx="-43.02" cy="504.31" fx="-43.02" fy="504.31" r="2.27" gradientTransform="translate(-2026.57 25529.31) rotate(179.97) scale(50.37)" xlink:href="#radial-gradient"/>
    <clipPath id="clippath-26">
      <path class="st36" d="M49.93,126.15c1.09,2.6,3.06,4.01,3.06,4.01,0,0,.47-2.66-.62-5.28-1.08-2.59-2.8-3.72-2.8-3.72,0,0-.73,2.39.35,4.98"/>
    </clipPath>
    <radialGradient id="radial-gradient24" cx="-43.02" cy="504.32" fx="-43.02" fy="504.32" r="2.27" gradientTransform="translate(-2040.27 25508.84) rotate(-179.99) scale(50.35)" xlink:href="#radial-gradient"/>
    <clipPath id="clippath-27">
      <path class="st36" d="M54.84,133.21c-2.93,0-5.03,1.68-5.03,1.68,0,0,2.1,1.45,5.03,1.44,2.93,0,5.31-1.58,5.31-1.58,0,0-2.36-1.54-5.27-1.54h-.05"/>
    </clipPath>
    <radialGradient id="radial-gradient25" cx="-43.03" cy="504.31" fx="-43.03" fy="504.31" r="2.28" gradientTransform="translate(-2032.82 25512.48) rotate(-179.98) scale(50.35)" xlink:href="#radial-gradient"/>
    <clipPath id="clippath-28">
      <path class="st36" d="M56.83,130.59c1.64,2.29,3.88,3.22,3.88,3.22,0,0-.14-2.71-1.78-5-1.65-2.29-3.58-3-3.58-3,0,0-.17,2.48,1.48,4.77"/>
    </clipPath>
    <radialGradient id="radial-gradient26" cx="-43.02" cy="504.32" fx="-43.02" fy="504.32" r="2.27" gradientTransform="translate(-2036.72 25489.42) rotate(-179.98) scale(50.31)" xlink:href="#radial-gradient"/>
    <clipPath id="clippath-29">
      <path class="st36" d="M65.24,138.11c-.45-.92-.07-2.03.85-2.48.92-.45,2.03-.07,2.49.84.45.92.07,2.03-.84,2.47-.27.13-.55.2-.82.2-.68,0-1.35-.37-1.67-1.03M63.73,130.84c-.9.45-.75,2.63.01,4.17.36.73.86,1.32,1.38,1.68-.64-.03-1.38.12-2.12.48-1.55.76-2.99,2.4-2.54,3.3.45.91,2.63.75,4.16-.01.74-.36,1.32-.86,1.69-1.37-.04.63.13,1.37.49,2.11.75,1.54,2.39,2.99,3.3,2.54.91-.44.75-2.62-.02-4.16-.36-.73-.86-1.31-1.38-1.67.64.03,1.38-.13,2.12-.5,1.53-.76,2.99-2.39,2.55-3.3-.45-.91-2.63-.75-4.17.01-.74.36-1.32.87-1.68,1.38.03-.64-.13-1.38-.49-2.12-.66-1.35-1.99-2.63-2.93-2.63-.13,0-.26.03-.37.08"/>
    </clipPath>
    <radialGradient id="radial-gradient27" cx="-43.01" cy="504.32" fx="-43.01" fy="504.32" r="2.27" gradientTransform="translate(-2009.77 25491.23) rotate(180) scale(50.32)" xlink:href="#radial-gradient"/>
    <clipPath id="clippath-30">
      <path class="st36" d="M39.18,119.24c-1.03-.16-1.75-1.12-1.6-2.15.14-1.03,1.1-1.76,2.14-1.61,1.03.16,1.75,1.11,1.6,2.15-.14.95-.95,1.63-1.88,1.63-.09,0-.18,0-.27-.02M38.1,113.6c-.12.82-.03,1.61.19,2.21-.51-.39-1.23-.69-2.07-.81-1.73-.25-3.9.29-4.05,1.31-.15,1.02,1.78,2.15,3.52,2.41.82.11,1.6.03,2.21-.21-.39.52-.69,1.25-.81,2.07-.25,1.74.29,3.9,1.32,4.05,1.02.14,2.15-1.78,2.4-3.51.11-.83.04-1.62-.2-2.23.51.39,1.24.7,2.08.81,1.73.25,3.9-.28,4.05-1.31.15-1.02-1.79-2.15-3.52-2.39-.83-.12-1.61-.04-2.21.19.39-.52.69-1.24.81-2.07.25-1.73-.3-3.9-1.31-4.06h-.12c-.99,0-2.05,1.85-2.29,3.53"/>
    </clipPath>
    <radialGradient id="radial-gradient28" cx="-43.01" cy="504.33" fx="-43.01" fy="504.33" r="2.28" gradientTransform="translate(-2058.23 25512.75) rotate(-179.99) scale(50.34)" xlink:href="#radial-gradient"/>
    <clipPath id="clippath-31">
      <path class="st36" d="M81.26,140.33c0,1.29,1.04,2.33,2.33,2.33s2.32-1.04,2.32-2.33-1.04-2.33-2.32-2.33-2.33,1.04-2.33,2.33"/>
    </clipPath>
    <radialGradient id="radial-gradient29" cx="-47.05" cy="500.78" fx="-47.05" fy="500.78" r="2.3" gradientTransform="translate(2422.01 25252.32) scale(50.33 -50.33)" xlink:href="#radial-gradient"/>
    <clipPath id="clippath-32">
      <polygon class="st36" points="22.8 74.35 27.49 74.96 27.19 77.27 22.53 76.66 22.32 78.89 33.85 80.4 34.02 78.18 29.25 77.55 29.55 75.23 34.33 75.86 34.74 73.64 23.21 72.13 22.8 74.35"/>
    </clipPath>
    <radialGradient id="radial-gradient30" cx="-47.05" cy="500.75" fx="-47.05" fy="500.75" r="2.28" gradientTransform="translate(2422.37 25256.13) scale(50.34 -50.34)" xlink:href="#radial-gradient"/>
    <clipPath id="clippath-33">
      <path class="st36" d="M29.88,65.86c-.6-.32-1.68-.87-2.37-1.23l.02-.04c.76.14,1.89.37,2.59.49l2.4.41-.53,1.55-2.12-1.17ZM25,65.04l10.3,6.21.61-2.13-2.33-1.32.66-1.96,2.65.38.78-2.05-11.84-1.6-.84,2.46Z"/>
    </clipPath>
    <radialGradient id="radial-gradient31" cx="-47.04" cy="500.75" fx="-47.04" fy="500.75" r="2.27" gradientTransform="translate(2421.33 25247.29) scale(50.32 -50.32)" xlink:href="#radial-gradient"/>
    <clipPath id="clippath-34">
      <polygon class="st36" points="31.04 51.78 38.07 55.53 38.05 55.56 29.61 54.23 28.67 56.03 38.78 61.82 39.67 60.06 32.8 56.29 32.89 56.33 41.07 57.61 42.19 55.88 32.08 50.11 31.04 51.78"/>
    </clipPath>
    <radialGradient id="radial-gradient32" cx="-47.04" cy="500.76" fx="-47.04" fy="500.76" r="2.28" gradientTransform="translate(2421.46 25250.83) scale(50.33 -50.33)" xlink:href="#radial-gradient"/>
    <clipPath id="clippath-35">
      <path class="st36" d="M37.73,42.75l1.65,2.3c.49.69,1,1.38,1.56,2.02l-.02.02c-.76-.42-1.55-.8-2.25-1.12l-2.67-1.22-1.48,1.86,7.05,2.67,3.39,2.88,1.45-1.71-3.46-2.93-3.67-6.47-1.56,1.69Z"/>
    </clipPath>
    <radialGradient id="radial-gradient33" cx="-47.04" cy="500.76" fx="-47.04" fy="500.76" r="2.26" gradientTransform="translate(2421.83 25256.63) scale(50.34 -50.34)" xlink:href="#radial-gradient"/>
    <clipPath id="clippath-36">
      <path class="st36" d="M46.75,40.61c-.34-.58-.98-1.61-1.39-2.27l.05-.04c.57.52,1.43,1.29,1.97,1.75l1.84,1.6-1.25,1.05-1.22-2.1ZM43.02,37.5l5.64,10.6,1.6-1.52-1.34-2.4,1.58-1.33,2.14,1.75,1.76-1.35-9.33-7.48-2.04,1.73Z"/>
    </clipPath>
    <radialGradient id="radial-gradient34" cx="-47.05" cy="500.76" fx="-47.05" fy="500.76" r="2.28" gradientTransform="translate(2415.86 25188.02) scale(50.2 -50.2)" xlink:href="#radial-gradient"/>
    <clipPath id="clippath-37">
      <path class="st36" d="M55.09,29.21l1.24,2.25c1.03,1.86,2.13,3.53,2.78,4.56l-.03.02c-.77-.72-1.98-1.73-2.7-2.35l-3.77-3.11-1.75,1.06,5.64,10.18,1.68-1.03-1.28-2.32c-1.13-2.03-2.06-3.54-2.67-4.53l.03-.02c.73.79,1.9,1.8,2.7,2.47l3.71,3.02,1.83-.9-5.66-10.18-1.75.89Z"/>
    </clipPath>
    <radialGradient id="radial-gradient35" cx="-47.04" cy="500.76" fx="-47.04" fy="500.76" r="2.29" gradientTransform="translate(2421.58 25251.6) scale(50.33 -50.33)" xlink:href="#radial-gradient"/>
    <clipPath id="clippath-38">
      <path class="st36" d="M66.06,24.68c-2.32.75-4.07,3.13-2.84,7.13.57,1.9,1.6,3.37,2.83,3.97.97.5,2.03.55,3.28.15.8-.26,1.75-.77,2.15-1.12l-1.87-5.85-2.95.94.56,1.74.98-.31.85,2.64c-.07.06-.21.12-.4.18-.99.32-2.32-.29-3.17-2.92-.92-2.86-.08-4.23,1.37-4.69.54-.17.97-.21,1.33-.16l-.21-1.96c-.1-.02-.21-.03-.35-.03-.39,0-.92.07-1.55.27"/>
    </clipPath>
    <radialGradient id="radial-gradient36" cx="-47.05" cy="500.75" fx="-47.05" fy="500.75" r="2.28" gradientTransform="translate(2421.35 25246.2) scale(50.32 -50.32)" xlink:href="#radial-gradient"/>
    <clipPath id="clippath-39">
      <path class="st36" d="M82.84,29.7c.06,1.74-.39,2.22-1.04,2.25-.58.02-1.11-.48-1.16-2.17l-.25-7.51-2.24.17.24,7.04c.1,2.88,1.1,4.51,3.5,4.42,2.22-.07,3.27-1.72,3.17-4.67l-.24-7.01-2.25-.02.27,7.49Z"/>
    </clipPath>
    <radialGradient id="radial-gradient37" cx="-47.05" cy="500.77" fx="-47.05" fy="500.77" r="2.26" gradientTransform="translate(2422.82 25260.42) scale(50.35 -50.35)" xlink:href="#radial-gradient"/>
    <clipPath id="clippath-40">
      <polygon class="st36" points="88.49 34.03 90.45 34.26 91.63 26.45 91.67 26.46 93.24 34.75 95.23 35.17 97.18 23.71 95.24 23.31 94.14 31.14 94.11 31.14 92.44 22.83 90.45 22.58 88.49 34.03"/>
    </clipPath>
    <radialGradient id="radial-gradient38" cx="-47.05" cy="500.75" fx="-47.05" fy="500.75" r="2.27" gradientTransform="translate(2421.65 25247.11) scale(50.32 -50.32)" xlink:href="#radial-gradient"/>
    <clipPath id="clippath-41">
      <polygon class="st36" points="98.46 36.06 100.58 36.79 104.31 25.79 102.19 25.08 98.46 36.06"/>
    </clipPath>
    <radialGradient id="radial-gradient39" cx="-47.04" cy="500.76" fx="-47.04" fy="500.76" r="2.27" gradientTransform="translate(2420.96 25246.03) scale(50.32 -50.32)" xlink:href="#radial-gradient"/>
    <clipPath id="clippath-42">
      <polygon class="st36" points="105.16 38.71 107.36 39.84 114.98 30.81 112.85 29.58 107.52 37.02 107.49 37.01 110.35 28.29 108.11 27.28 105.16 38.71"/>
    </clipPath>
    <radialGradient id="radial-gradient40" cx="-47.05" cy="500.76" fx="-47.05" fy="500.76" r="2.28" gradientTransform="translate(2422.12 25258.3) scale(50.34 -50.34)" xlink:href="#radial-gradient"/>
    <clipPath id="clippath-43">
      <polygon class="st36" points="111.63 42.43 115.78 45.56 116.99 43.95 114.61 42.16 116.48 39.68 118.58 41.27 119.7 39.78 117.6 38.2 119.19 36.08 121.4 37.75 122.62 36.16 118.62 33.15 111.63 42.43"/>
    </clipPath>
    <radialGradient id="radial-gradient41" cx="-47.04" cy="500.76" fx="-47.04" fy="500.76" r="2.27" gradientTransform="translate(2421.48 25250.51) scale(50.33 -50.33)" xlink:href="#radial-gradient"/>
    <clipPath id="clippath-44">
      <path class="st36" d="M124.75,45.48l-.27-.29,2.51-2.34c.11.06.28.2.41.35.66.76.42,1.52-.3,2.19-.4.36-.86.57-1.31.57-.38,0-.75-.14-1.05-.48M118.25,47.91l1.6,1.58,3.36-3.12.22.23c.51.55.45,1.1-.45,2.22-.81.99-1.49,1.96-1.64,2.28l1.54,1.87c.17-.45,1.06-1.79,1.85-2.83.75-1,1.02-1.78.71-2.57l.03-.02c1.2.49,2.42.17,3.32-.67.73-.67,1.15-1.35,1.13-2.28-.01-1.02-.58-1.97-1.42-2.87-.57-.62-1.22-1.23-1.72-1.73l-8.53,7.91Z"/>
    </clipPath>
    <radialGradient id="radial-gradient42" cx="-47.06" cy="500.75" fx="-47.06" fy="500.75" r="2.28" gradientTransform="translate(2421.58 25246.85) scale(50.32 -50.32)" xlink:href="#radial-gradient"/>
    <clipPath id="clippath-45">
      <path class="st36" d="M131.04,50.15c-.88.56-1.58,1.72-1.53,3.56,0,1.16-.07,1.81-.77,2.27-.63.41-1.37.27-1.94-.62-.35-.54-.62-1.31-.65-1.83l-1.8.77c.01.44.31,1.33.8,2.1,1.22,1.9,3.22,2.46,4.98,1.32,1.02-.66,1.7-1.76,1.65-3.53-.04-1.46.07-1.95.65-2.31.52-.33,1.26-.26,1.77.54.35.55.46,1.07.47,1.45l1.82-.74c-.02-.39-.24-1.11-.64-1.75-.81-1.25-1.87-1.81-2.93-1.81-.65,0-1.29.2-1.88.58"/>
    </clipPath>
    <radialGradient id="radial-gradient43" cx="-47.04" cy="500.75" fx="-47.04" fy="500.75" r="2.27" gradientTransform="translate(2421.98 25252) scale(50.33 -50.33)" xlink:href="#radial-gradient"/>
    <clipPath id="clippath-46">
      <rect class="st36" x="128.42" y="59.42" width="11.56" height="2.24" transform="translate(-13.01 62.16) rotate(-24.91)"/>
    </clipPath>
    <radialGradient id="radial-gradient44" cx="-47.05" cy="500.76" fx="-47.05" fy="500.76" r="2.28" gradientTransform="translate(2421.45 25249.94) scale(50.33 -50.33)" xlink:href="#radial-gradient"/>
    <clipPath id="clippath-47">
      <polygon class="st36" points="139.54 63.7 140.2 65.63 131.07 68.43 131.72 70.57 140.85 67.77 141.38 69.74 143.37 69.14 141.53 63.1 139.54 63.7"/>
    </clipPath>
    <radialGradient id="radial-gradient45" cx="-47.04" cy="500.76" fx="-47.04" fy="500.76" r="2.26" gradientTransform="translate(2422.35 25255.21) scale(50.34 -50.34)" xlink:href="#radial-gradient"/>
    <clipPath id="clippath-48">
      <polygon class="st36" points="137.29 75.63 132.91 76.17 133.2 78.4 137.64 77.84 144.92 79.54 144.74 77.25 139.33 76.67 139.33 76.64 144.42 74.63 144.03 72.25 137.29 75.63"/>
    </clipPath>
    <radialGradient id="radial-gradient46" cx="-47.04" cy="500.76" fx="-47.04" fy="500.76" r="2.27" gradientTransform="translate(2421.1 25247.74) scale(50.32 -50.32)" xlink:href="#radial-gradient"/>
    <clipPath id="clippath-49">
      <path class="st36" d="M76.47,107.97c-.24-.06-.45-.14-.64-.26-.19-.12-.33-.28-.45-.48-.11-.2-.17-.45-.17-.75s.06-.55.17-.75c.11-.2.26-.36.45-.48.19-.12.4-.21.64-.26.25-.05.49-.07.74-.07s.49.03.74.07c.23.05.45.14.64.26.19.12.34.28.46.48.1.2.15.45.15.75s-.05.55-.15.75c-.12.2-.26.36-.46.48-.19.12-.4.21-.64.26-.25.05-.49.08-.74.08s-.5-.03-.74-.08M75.97,103.59c-.46.13-.88.33-1.25.6-.38.28-.69.61-.91,1.04-.24.42-.35.92-.35,1.51,0,.49.1.9.3,1.25.2.34.46.63.78.85.32.23.68.38,1.07.49.41.1.79.16,1.16.16.49,0,.94-.09,1.38-.27.44-.17.87-.38,1.32-.62-.11,1.83-.97,2.74-2.6,2.74-.17,0-.36-.02-.56-.04-.21-.03-.42-.08-.62-.15-.21-.07-.39-.16-.57-.28-.18-.11-.32-.24-.42-.38-.04-.06-.07-.13-.09-.21-.01-.08-.02-.14-.02-.2l-.19-.11-.94,1.91.13.12c.09-.07.19-.11.29-.11.09,0,.2.05.34.13.13.09.31.18.53.29.22.12.49.21.82.28.32.08.73.11,1.19.11.68,0,1.29-.11,1.84-.33.55-.23,1.02-.55,1.41-.99.39-.44.7-.95.91-1.56.21-.61.32-1.29.32-2.04,0-.63-.1-1.22-.29-1.76-.18-.53-.45-.99-.79-1.38-.34-.39-.76-.69-1.23-.9-.47-.22-1-.32-1.57-.32-.46,0-.92.05-1.39.18"/>
    </clipPath>
    <radialGradient id="radial-gradient47" cx="-46.88" cy="500.88" fx="-46.88" fy="500.88" r="2.26" gradientTransform="translate(2622.05 27481.17) scale(54.77 -54.77)" xlink:href="#radial-gradient1"/>
    <clipPath id="clippath-50">
      <path class="st36" d="M93.43,107.97c-.25-.06-.46-.14-.65-.26-.18-.12-.33-.28-.44-.48-.1-.2-.16-.45-.16-.75s.06-.55.16-.75c.11-.2.26-.36.44-.48.19-.12.41-.21.65-.26.24-.05.48-.07.73-.07s.49.03.73.07c.24.05.45.14.64.26.19.12.34.28.45.48.11.2.16.45.16.75s-.06.55-.16.75c-.11.2-.26.36-.45.48-.19.12-.4.21-.64.26-.24.05-.48.08-.73.08s-.5-.03-.73-.08M92.92,103.59c-.46.13-.88.33-1.26.6-.38.28-.69.61-.91,1.04-.24.42-.36.92-.36,1.51,0,.49.11.9.3,1.25.2.34.47.63.78.85.32.23.68.38,1.08.49.4.1.78.16,1.16.16.48,0,.94-.09,1.38-.27.44-.17.87-.38,1.32-.62-.11,1.83-.97,2.74-2.6,2.74-.16,0-.35-.02-.56-.04-.21-.03-.42-.08-.62-.15-.2-.07-.39-.16-.57-.28-.17-.11-.31-.24-.42-.38-.04-.06-.06-.13-.08-.21-.02-.08-.02-.14-.02-.2l-.19-.11-.94,1.91.13.12c.08-.07.18-.11.3-.11.08,0,.19.05.33.13.13.09.31.18.53.29.22.12.49.21.82.28.33.08.73.11,1.2.11.67,0,1.29-.11,1.83-.33.55-.23,1.01-.55,1.41-.99.39-.44.71-.95.91-1.56.22-.61.32-1.29.32-2.04,0-.63-.09-1.22-.28-1.76-.19-.53-.45-.99-.8-1.38-.34-.39-.75-.69-1.23-.9-.47-.22-1-.32-1.57-.32-.46,0-.92.05-1.38.18"/>
    </clipPath>
    <radialGradient id="radial-gradient48" cx="-46.88" cy="500.89" fx="-46.88" fy="500.89" r="2.26" gradientTransform="translate(2621.97 27483.55) scale(54.77 -54.77)" xlink:href="#radial-gradient1"/>
    <clipPath id="clippath-51">
      <path class="st36" d="M84.29,103.61c-.43.13-.78.27-1.04.44-.28.16-.48.31-.62.45-.14.13-.23.2-.29.2-.09,0-.17-.03-.26-.09l-.19.16,1.25,1.77.14-.1c-.02-.06-.03-.12-.05-.19,0-.06-.01-.11-.01-.16,0-.13.07-.27.24-.41.15-.14.35-.27.59-.38.24-.12.51-.22.8-.28.3-.07.58-.1.87-.1.23,0,.47.01.7.04.23.03.45.08.64.16.19.08.34.19.46.34.12.15.18.32.18.56s-.07.45-.2.6c-.14.16-.3.29-.49.39-.19.08-.39.15-.61.18-.22.04-.41.05-.58.05-.26,0-.48-.03-.68-.11-.2-.08-.32-.23-.33-.46h-.19v2.37h.19c.06-.22.18-.34.36-.39.18-.06.4-.08.66-.08.17,0,.39,0,.63.05.25.03.47.09.69.17.22.1.4.22.55.4.14.16.22.39.22.67s-.08.52-.24.71c-.16.18-.35.32-.57.43-.22.11-.46.18-.71.22-.26.04-.48.06-.66.06-.24,0-.53-.04-.89-.11-.34-.08-.68-.19-1-.33-.32-.15-.58-.32-.82-.53-.23-.21-.34-.45-.34-.71v-.12c0-.06,0-.09.02-.12l-.17-.1-.91,2.49.14.05s.08-.04.12-.07c.04-.02.08-.03.13-.03.08,0,.23.05.43.15.2.12.46.24.77.37.31.13.67.26,1.08.35.41.1.85.14,1.32.14.41,0,.86-.04,1.33-.11.48-.08.91-.22,1.31-.45.38-.23.72-.53.98-.91.27-.38.4-.87.4-1.46,0-.52-.15-.95-.43-1.3-.28-.34-.65-.57-1.09-.68v-.04c.38-.09.67-.32.9-.68.22-.35.32-.73.32-1.15,0-.45-.11-.83-.32-1.15-.21-.32-.49-.58-.83-.78-.34-.21-.7-.35-1.11-.45-.41-.09-.82-.13-1.22-.13-.61,0-1.12.07-1.54.2"/>
    </clipPath>
    <radialGradient id="radial-gradient49" cx="-46.88" cy="500.88" fx="-46.88" fy="500.88" r="2.26" gradientTransform="translate(2621.88 27480.92) scale(54.77 -54.77)" xlink:href="#radial-gradient1"/>
    <clipPath id="clippath-52">
      <path class="st36" d="M69.9,103.41v.2c.12.03.21.06.27.11.07.04.1.15.1.31,0,.17-.05.32-.18.45-.12.12-.27.18-.44.18-.09,0-.17-.02-.27-.06-.09-.04-.14-.11-.14-.22h-.19v2.19h.19c.03-.09.08-.16.16-.22.08-.05.16-.09.26-.12.09-.03.19-.05.29-.06.1-.02.18-.02.25-.02v5.8c0,.2-.04.33-.12.39-.08.06-.16.1-.27.1v.21h2.57v-.21c-.11,0-.2-.04-.28-.1-.09-.07-.13-.19-.13-.39v-7.96c0-.12.04-.2.13-.26.08-.06.19-.1.31-.12v-.2h-2.52Z"/>
    </clipPath>
    <radialGradient id="radial-gradient50" cx="-46.88" cy="500.89" fx="-46.88" fy="500.89" r="2.27" gradientTransform="translate(2622.07 27482.33) scale(54.77 -54.77)" xlink:href="#radial-gradient1"/>
  </defs>
  <g>
    <polygon class="st31" points="188.3 108.98 188.3 118.18 192.99 118.18 192.99 108.98 197.47 108.98 197.47 131.96 192.99 131.96 192.99 122.35 188.3 122.35 188.3 131.96 183.84 131.96 183.84 108.98 188.3 108.98"/>
    <path class="st31" d="M207.19,126.71l-1.02,5.25h-4.35l5-22.98h5.34l4.46,22.98h-4.35l-.97-5.25h-4.12ZM210.9,123.23l-.75-4.82c-.23-1.38-.54-3.68-.75-5.21h-.11c-.23,1.53-.57,3.92-.81,5.26l-.84,4.77h3.26Z"/>
    <path class="st31" d="M221.27,131.96v-22.98h4.1l3.55,9c.68,1.78,1.79,4.71,2.45,6.73h.07c-.14-2.42-.43-6.42-.43-10.65v-5.07h3.92v22.98h-4.1l-3.51-8.73c-.77-1.95-1.81-4.85-2.31-6.93h-.07c.07,2.32.25,5.89.25,10.51v5.15h-3.92Z"/>
    <path class="st31" d="M243.56,131.96v-8.79l-5.05-14.2h4.78l1.56,5.48c.41,1.47.86,3.17,1.2,4.88h.07c.27-1.68.66-3.34,1.06-4.98l1.38-5.38h4.62l-5.14,14.02v8.97h-4.48Z"/>
    <path class="st31" d="M259.43,126.71l-1.02,5.25h-4.35l5-22.98h5.34l4.48,22.98h-4.35l-1-5.25h-4.12ZM263.14,123.23l-.75-4.82c-.25-1.38-.54-3.68-.77-5.21h-.09c-.23,1.53-.57,3.92-.81,5.26l-.84,4.77h3.26Z"/>
    <path class="st31" d="M273.51,131.96v-22.98h4.1l3.55,9c.68,1.78,1.79,4.71,2.45,6.73h.07c-.14-2.42-.45-6.42-.45-10.65v-5.07h3.94v22.98h-4.1l-3.53-8.73c-.75-1.95-1.79-4.85-2.31-6.93h-.05c.07,2.32.25,5.89.25,10.51v5.15h-3.92Z"/>
    <path class="st31" d="M305.98,131.35c-.97.41-3.1.82-4.78.82-2.63,0-4.6-.75-6.14-2.29-1.97-1.9-3.01-5.31-2.97-9.27.11-8.37,4.89-11.85,9.78-11.85,1.72,0,3.03.36,3.74.69l-.77,3.85c-.66-.3-1.52-.5-2.65-.5-3.03,0-5.46,2.06-5.46,8.08,0,5.53,2.15,7.51,4.26,7.51.38,0,.7-.02.88-.11v-5.55h-2.06v-3.67h6.16v12.3Z"/>
    <path class="st31" d="M323.33,108.98v14.93c0,3.39,1.02,4.4,2.17,4.4,1.31,0,2.24-.91,2.24-4.4v-14.93h4.46v14.15c0,5.89-2.22,9.1-6.66,9.1-4.82,0-6.68-3.31-6.68-9.06v-14.2h4.46Z"/>
    <path class="st31" d="M338.18,131.96v-22.98h4.08l3.56,9c.68,1.78,1.81,4.71,2.47,6.73h.07c-.16-2.42-.45-6.42-.45-10.65v-5.07h3.92v22.98h-4.1l-3.51-8.73c-.75-1.95-1.79-4.85-2.31-6.93h-.09c.11,2.32.29,5.89.29,10.51v5.15h-3.92Z"/>
    <rect class="st31" x="357.88" y="108.98" width="4.48" height="22.98"/>
    <path class="st31" d="M371.67,131.96l-5.16-22.98h4.98l1.61,9.92c.41,2.46.88,5.28,1.22,7.98h.05c.32-2.72.68-5.49,1.09-8.09l1.56-9.8h4.94l-5.25,22.98h-5.03Z"/>
    <polygon class="st31" points="395.72 121.87 390.47 121.87 390.47 128.06 396.42 128.06 396.42 131.96 386.01 131.96 386.01 108.98 395.99 108.98 395.99 112.85 390.47 112.85 390.47 118.13 395.72 118.13 395.72 121.87"/>
    <path class="st31" d="M401.57,109.3c1.4-.26,3.17-.44,4.89-.44,2.45,0,4.62.34,6.11,1.7,1.4,1.27,1.83,2.81,1.83,4.79,0,2.45-1.2,4.68-3.56,5.76v.07c1.56.62,2.36,2.08,2.79,4.53.45,2.56,1.06,5.4,1.47,6.25h-4.66c-.27-.65-.79-2.97-1.13-5.49-.41-2.85-1.11-3.69-2.63-3.69h-.63v9.18h-4.48v-22.66ZM406.05,119.33h.77c1.95,0,3.08-1.56,3.08-3.58s-.79-3.35-2.81-3.42c-.36,0-.82.05-1.04.14v6.86Z"/>
    <path class="st31" d="M419.23,127.41c.88.5,2.47.86,3.76.86,2.13,0,3.12-1.09,3.12-2.57,0-1.69-1-2.5-2.94-3.76-3.15-1.91-4.32-4.35-4.32-6.42,0-3.69,2.45-6.77,7.25-6.77,1.52,0,2.94.42,3.65.83l-.72,3.86c-.66-.42-1.65-.78-2.94-.78-1.92,0-2.83,1.15-2.83,2.39,0,1.35.68,2.07,3.17,3.58,3.04,1.85,4.17,4.16,4.17,6.59,0,4.19-3.1,6.95-7.61,6.95-1.83,0-3.67-.48-4.42-.92l.68-3.84Z"/>
    <rect class="st31" x="435.28" y="108.98" width="4.46" height="22.98"/>
    <polygon class="st31" points="448.35 113.1 444.27 113.1 444.27 108.98 456.91 108.98 456.91 113.1 452.81 113.1 452.81 131.96 448.35 131.96 448.35 113.1"/>
    <path class="st31" d="M465.08,131.96v-8.79l-5.03-14.2h4.78l1.56,5.48c.41,1.47.86,3.17,1.2,4.88h.07c.27-1.68.63-3.34,1.06-4.98l1.36-5.38h4.64l-5.16,14.02v8.97h-4.48Z"/>
    <path class="st31" d="M224.94,36.9h-8.76v43.91h8.76v-23.78h8.63v-5.11h-8.63v-15.02ZM195.91,75.69h-8.79v22.41h38.83v-5.19h-30.05v-17.22ZM462.82,83.98h8.27v-47.14h-42.46v5.2h34.19v41.95ZM256.46,35.57c-21.74,0-21.74,31.74,0,31.74s21.65-31.74,0-31.74M256.46,40.45c10.57,0,10.57,22.03,0,22.03s-10.69-22.03,0-22.03M203.7,44.99h7.92v-5.18h-13.13v-4.94h-8.76v4.94h-13.18v5.18h7.92c-9.69,7.5-6.5,26.26,9.65,26.26s19.25-18.76,9.58-26.26M194.12,46.53c9.94,0,9.94,20.12,0,20.12s-10.05-20.12,0-20.12M372.38,80.81h30.61v17.29h8.76v-22.41h-39.38v5.12ZM411.76,36.9h-8.76v35.96h8.76v-15.83h8.63v-5.11h-8.63v-15.02ZM390.54,44.99h7.93v-5.18h-13.16v-4.94h-8.79v4.94h-13.13v5.18h7.93c-9.71,7.5-6.5,26.26,9.65,26.26s19.22-18.76,9.58-26.26M380.91,46.53c9.96,0,9.96,20.12,0,20.12s-10.03-20.12,0-20.12M270.68,69.88c-22.37,0-22.44,30.33,0,30.33s22.3-30.33,0-30.33M270.68,95.34c-10.96,0-10.96-20.75,0-20.75s10.87,20.75,0,20.75M457.38,88.83v-26.56h-8.11v26.56h-5.8v-26.56h-8.11v26.56h-8.88v5.2h48.01v-5.2h-17.12ZM286.67,36.97h-8.83v32.66h8.83v-8.58h8.63v-5.21h-8.63v-7.4h8.63v-5.12h-8.63v-6.35ZM344.41,55.84h-4.05v-18.94h-8.24v34.91h-16.37v-29.71h12.07v-5.2h-20.85v40.11h25.16v21.16h8.24v-37.12h4.05v37.12h8.24v-61.27h-8.24v18.94Z"/>
  </g>
  <g class="st104">
    <rect class="st41" x="14.17" y="14.27" width="138.84" height="138.84"/>
  </g>
  <g class="st48">
    <rect class="st47" x="13.9" y="14" width="139.37" height="139.38"/>
  </g>
  <g class="st93">
    <rect class="st102" x="-10.7" y="-10.6" width="188.59" height="188.59" transform="translate(-34.7 83.62) rotate(-45)"/>
  </g>
  <g class="st67">
    <rect class="st86" x="17.74" y="17.83" width="131.71" height="131.71"/>
  </g>
  <g class="st15">
    <rect class="st27" x="18.59" y="18.7" width="129.99" height="129.99" transform="translate(-34.7 83.61) rotate(-45)"/>
  </g>
  <g class="st54">
    <rect class="st98" x="38.76" y="38.81" width="89.66" height="89.67"/>
  </g>
  <g class="st4">
    <rect class="st95" x="52.59" y="63.35" width="61.63" height="28.01"/>
  </g>
  <g class="st5">
    <rect class="st46" x="50.17" y="61.15" width="66.52" height="32.77"/>
  </g>
  <g class="st59">
    <rect class="st85" x="63.73" y="69.24" width="39.79" height="18.3"/>
  </g>
  <g class="st21">
    <polygon class="st64" points="139.17 89.95 139.99 96.62 136.93 96.99 136.12 90.32 139.17 89.95"/>
  </g>
  <g class="st22">
    <polygon class="st78" points="144.45 93.79 145.6 103.15 136.97 104.2 135.83 94.85 144.45 93.79"/>
  </g>
  <g class="st34">
    <rect class="st101" x="132.34" y="93.6" width="5" height="9.54" transform="translate(-10.96 17.12) rotate(-6.98)"/>
  </g>
  <g class="st71">
    <rect class="st24" x="132.46" y="103.82" width="9.86" height="8.13" transform="translate(-12.13 17.56) rotate(-7.01)"/>
  </g>
  <g class="st100">
    <rect class="st32" x="129.69" y="101.33" width="4.11" height="9.71" transform="translate(-11.91 16.76) rotate(-6.97)"/>
  </g>
  <g class="st73">
    <rect class="st79" x="115.16" y="127.16" width="11.02" height="5.36" transform="translate(-14.76 15.48) rotate(-6.92)"/>
  </g>
  <g class="st9">
    <rect class="st70" x="113.6" y="120.91" width="5.67" height="9.49" transform="translate(-14.4 15.07) rotate(-6.97)"/>
  </g>
  <g class="st92">
    <rect class="st68" x="107.29" y="132.59" width="10.64" height="4.37" transform="translate(-15.51 14.64) rotate(-6.96)"/>
  </g>
  <g class="st6">
    <rect class="st90" x="106.41" y="125.51" width="6.46" height="8.6" transform="translate(-14.97 14.3) rotate(-6.99)"/>
  </g>
  <g class="st13">
    <rect class="st106" x="93.01" y="129.97" width="15.34" height="15.02" transform="translate(-15.97 13.26) rotate(-6.98)"/>
  </g>
  <g class="st77">
    <rect class="st84" x="119.87" y="109.22" width="16.54" height="16.41" transform="translate(-13.3 16.42) rotate(-6.97)"/>
  </g>
  <g class="st56">
    <rect class="st66" x="26.18" y="91.93" width="6.72" height="3.07" transform="translate(-66.81 111.5) rotate(-83.06)"/>
  </g>
  <g class="st3">
    <polygon class="st44" points="23.15 93.79 22.01 103.15 30.62 104.2 31.76 94.85 23.15 93.79"/>
  </g>
  <g class="st16">
    <rect class="st8" x="27.99" y="95.87" width="9.54" height="5" transform="translate(-68.86 118.95) rotate(-83.03)"/>
  </g>
  <g class="st18">
    <rect class="st42" x="26.14" y="102.95" width="8.13" height="9.86" transform="translate(-80.56 124.74) rotate(-83.01)"/>
  </g>
  <g class="st103">
    <rect class="st45" x="31" y="104.13" width="9.71" height="4.11" transform="translate(-73.91 128.83) rotate(-83)"/>
  </g>
  <g class="st28">
    <rect class="st83" x="44.25" y="124.33" width="5.36" height="11.01" transform="translate(-87.66 160.58) rotate(-82.99)"/>
  </g>
  <g class="st69">
    <rect class="st29" x="46.41" y="122.82" width="9.49" height="5.68" transform="translate(-79.78 161.19) rotate(-83.03)"/>
  </g>
  <g class="st30">
    <rect class="st82" x="52.8" y="129.45" width="4.37" height="10.65" transform="translate(-85.46 173.02) rotate(-83.04)"/>
  </g>
  <g class="st43">
    <rect class="st61" x="53.65" y="126.58" width="8.6" height="6.46" transform="translate(-77.92 171.61) rotate(-83.04)"/>
  </g>
  <g class="st94">
    <rect class="st76" x="59.4" y="129.81" width="15.02" height="15.34" transform="translate(-77.68 187.19) rotate(-83.02)"/>
  </g>
  <g class="st75">
    <rect class="st12" x="31.25" y="109.16" width="16.41" height="16.54" transform="translate(-81.9 142.34) rotate(-83.03)"/>
  </g>
  <g class="st7">
    <rect class="st99" x="81.26" y="138" width="4.66" height="4.66"/>
  </g>
  <g class="st81">
    <rect class="st10" x="22.32" y="72.13" width="12.42" height="8.28"/>
  </g>
  <g class="st11">
    <rect class="st58" x="25" y="62.59" width="12.68" height="8.67"/>
  </g>
  <g class="st1">
    <rect class="st74" x="28.66" y="50.11" width="13.52" height="11.71"/>
  </g>
  <g class="st39">
    <rect class="st53" x="34.52" y="41.06" width="11.9" height="11.11"/>
  </g>
  <g class="st38">
    <rect class="st37" x="43.02" y="35.78" width="11.37" height="12.33"/>
  </g>
  <g class="st97">
    <rect class="st60" x="50.85" y="28.31" width="11.64" height="13.5"/>
  </g>
  <g class="st2">
    <rect class="st105" x="62" y="24.41" width="9.48" height="11.93"/>
  </g>
  <g class="st88">
    <rect class="st65" x="78.15" y="22.21" width="7.01" height="11.78"/>
  </g>
  <g class="st52">
    <rect class="st57" x="88.49" y="22.58" width="8.69" height="12.58"/>
  </g>
  <g class="st63">
    <rect class="st19" x="98.46" y="25.08" width="5.85" height="11.71"/>
  </g>
  <g class="st23">
    <rect class="st87" x="105.16" y="27.28" width="9.82" height="12.55"/>
  </g>
  <g class="st26">
    <rect class="st25" x="111.63" y="33.15" width="10.99" height="12.41"/>
  </g>
  <g class="st107">
    <rect class="st49" x="118.25" y="40" width="11.69" height="12.98"/>
  </g>
  <g class="st50">
    <rect class="st80" x="124.34" y="49.57" width="12.14" height="9.29"/>
  </g>
  <g class="st51">
    <rect class="st91" x="128.49" y="57.08" width="11.43" height="6.91"/>
  </g>
  <g class="st14">
    <rect class="st17" x="131.07" y="63.1" width="12.3" height="7.47"/>
  </g>
  <g class="st40">
    <rect class="st35" x="132.91" y="72.25" width="12.01" height="7.29"/>
  </g>
  <g class="st96">
    <rect class="st55" x="73.44" y="103.41" width="7.79" height="9.28"/>
  </g>
  <g class="st72">
    <rect class="st20" x="90.39" y="103.41" width="7.79" height="9.28"/>
  </g>
  <g class="st0">
    <rect class="st33" x="81.61" y="103.41" width="8" height="9.28"/>
  </g>
  <g class="st62">
    <rect class="st89" x="69.05" y="103.41" width="3.37" height="9.24"/>
  </g>
</svg>